<?xml version="1.0" encoding="UTF-8"?>
<svg version="1.1" xmlns="http://www.w3.org/2000/svg" width="512" height="512">
<path d="M0 0 C0.93191666 -0.00571014 1.86383331 -0.01142029 2.82398987 -0.01730347 C3.83444366 -0.01842133 4.84489746 -0.01953918 5.88597107 -0.02069092 C6.95982559 -0.02565582 8.03368011 -0.03062073 9.14007568 -0.03573608 C12.69136702 -0.05033494 16.24261364 -0.0571571 19.79393005 -0.06268311 C22.26910401 -0.06843785 24.74427796 -0.07419554 27.2194519 -0.07995605 C32.41200467 -0.09046056 37.60454199 -0.09630637 42.79710388 -0.09979248 C49.42884229 -0.10526614 56.06037424 -0.12927258 62.69204807 -0.15776443 C67.80780621 -0.17645435 72.92351534 -0.18159987 78.03930473 -0.18312836 C80.48276329 -0.1861427 82.92622123 -0.19412974 85.36964607 -0.20731354 C88.80102516 -0.22450149 92.23190933 -0.22246225 95.66331482 -0.21600342 C97.15774109 -0.22982559 97.15774109 -0.22982559 98.68235779 -0.243927 C112.53213168 -0.16287718 125.00445293 3.83464667 135.1025238 13.51544189 C143.80414613 22.80753145 148.3680239 33.40289613 148.34104919 46.21588135 C148.34092834 47.43344116 148.3408075 48.65100098 148.34068298 49.90545654 C148.33556702 51.17538452 148.33045105 52.4453125 148.32518005 53.75372314 C148.32417297 54.92817993 148.32316589 56.10263672 148.3221283 57.31268311 C148.31690297 61.69277932 148.3029417 66.07286161 148.2900238 70.45294189 C148.2693988 80.24981689 148.2487738 90.04669189 148.2275238 100.14044189 C170.0075238 100.14044189 191.7875238 100.14044189 214.2275238 100.14044189 C214.07022862 84.73487406 214.07022862 84.73487406 213.86717224 69.32989502 C213.6873465 48.87329206 216.31207812 31.75128428 230.9540863 16.35528564 C244.32334553 3.33059496 259.84226664 -0.1632438 277.96043396 -0.15008545 C279.31524521 -0.15608329 280.67005307 -0.16289168 282.02485657 -0.17044067 C285.67813335 -0.18798409 289.33131622 -0.19279119 292.98463106 -0.19407225 C295.27601736 -0.19550149 297.56738036 -0.19978568 299.85876083 -0.20506668 C307.87834416 -0.22353113 315.89786134 -0.23174214 323.91746521 -0.23016357 C331.35081239 -0.22896439 338.78386819 -0.25003198 346.21714175 -0.2816509 C352.63284065 -0.30795256 359.04844523 -0.31852504 365.46419752 -0.31725276 C369.28092499 -0.31674701 373.09739335 -0.32221158 376.91406631 -0.34360886 C415.47223284 -0.54450756 415.47223284 -0.54450756 432.2275238 11.14044189 C433.22332458 11.83266846 433.22332458 11.83266846 434.23924255 12.53887939 C445.02375761 20.92414278 452.32429944 34.74665583 454.2275238 48.14044189 C454.53470935 54.21061815 454.53386645 60.27459251 454.52830505 66.35137939 C454.53219912 68.12820535 454.53653524 69.90503039 454.54129028 71.68185425 C454.54872492 75.39529445 454.54848135 79.10863952 454.54319763 82.82208252 C454.53740746 87.5548874 454.55433653 92.28730035 454.5775423 97.02004051 C454.59235276 100.68688186 454.59314143 104.3536304 454.59003258 108.02049637 C454.59054214 109.7642151 454.59571055 111.50793952 454.6058445 113.25162888 C454.69761982 131.24935899 451.50857056 146.41726046 438.57518005 159.89044189 C428.83603873 169.22446087 417.61309323 175.39944103 404.01268005 176.68731689 C403.11557312 176.77336182 402.21846619 176.85940674 401.29417419 176.94805908 C400.61217957 177.01154541 399.93018494 177.07503174 399.2275238 177.14044189 C399.24847107 177.75975586 399.26941833 178.37906982 399.29100037 179.01715088 C399.37504201 181.87057731 399.42645825 184.72374226 399.4775238 187.57794189 C399.52779724 189.03877197 399.52779724 189.03877197 399.5790863 190.52911377 C399.67805728 197.92719409 398.57827997 204.23002167 393.64305115 209.98956299 C388.80729945 214.77933289 382.55884058 217.03598892 375.7978363 217.19903564 C369.70619394 216.71703701 365.29025664 214.51559712 360.2275238 211.14044189 C360.2275238 226.98044189 360.2275238 242.82044189 360.2275238 259.14044189 C363.98643005 259.10563721 367.7453363 259.07083252 371.6181488 259.03497314 C375.29196922 259.01152174 378.96578103 258.99333694 382.63963318 258.97564697 C385.17678104 258.96063713 387.71390329 258.94022293 390.2509613 258.91412354 C393.91508843 258.87739585 397.57887004 258.86063682 401.2431488 258.84747314 C402.36239746 258.83198929 403.48164612 258.81650543 404.6348114 258.80055237 C419.91067324 258.797348 432.81751006 263.1158599 443.9697113 273.69122314 C454.58851792 285.21024001 456.85091843 298.52011732 456.7587738 313.57794189 C456.76147593 315.15012857 456.76536431 316.7223136 456.77037048 318.29449463 C456.77623177 321.57240884 456.76781277 324.84988387 456.74900818 328.12774658 C456.72622014 332.30019605 456.73936155 336.47161588 456.76329803 340.64402771 C456.77784815 343.88543257 456.77310825 347.12659888 456.76278687 350.36801147 C456.76014492 351.90518317 456.76329869 353.44237752 456.77270508 354.97952271 C456.84060078 369.18799172 453.88542981 381.83333624 443.9697113 392.58966064 C432.95536032 403.03430382 420.08445771 407.62161043 404.94261169 407.29934692 C403.86100769 407.26495514 402.77940369 407.23056335 401.6650238 407.19512939 C399.29786795 407.16868846 396.93067582 407.14534477 394.5634613 407.12481689 C390.88855107 407.07962955 387.21825094 407.01514436 383.54490662 406.89727783 C369.03908421 405.82192424 369.03908421 405.82192424 356.03953552 410.89923096 C353.39613988 413.4995257 351.27644896 416.31837962 349.31130981 419.45518494 C347.54508849 422.20160973 345.44091231 424.63281302 343.3525238 427.14044189 C342.63967224 428.02602783 341.92682068 428.91161377 341.19236755 429.82403564 C337.12149655 434.6232931 332.66584265 438.79838692 326.2040863 439.44122314 C313.63830983 439.48515943 313.63830983 439.48515943 308.61424255 434.55841064 C303.01247018 428.42186287 301.92526132 423.46156293 302.1025238 415.32794189 C302.11154724 414.53968018 302.12057068 413.75141846 302.12986755 412.93927002 C302.15329876 411.00619523 302.18916542 409.0732781 302.2275238 407.14044189 C301.17178162 407.0456958 301.17178162 407.0456958 300.0947113 406.94903564 C290.34144306 405.73942666 280.23562072 402.32539931 273.2275238 395.14044189 C270.09218261 395.31462752 267.93778669 396.27951571 265.1025238 397.64044189 C256.64471243 401.3464677 248.63331886 400.36782958 240.2275238 397.14044189 C239.96068787 398.02216064 239.69385193 398.90387939 239.41893005 399.81231689 C234.08068891 414.72438725 221.32053766 427.07184439 207.35643005 434.07940674 C195.08311382 439.7674237 183.3344271 441.49999871 169.8525238 441.51544189 C168.70396912 441.53993408 167.55541443 441.56442627 166.37205505 441.58966064 C158.10472755 441.61853373 158.10472755 441.61853373 153.97361755 439.36700439 C152.13940818 437.02807969 151.56770819 436.07135916 151.6650238 433.14044189 C151.66309021 432.15044189 151.66309021 432.15044189 151.66111755 431.14044189 C152.48345799 428.23672946 153.9122159 427.04462719 156.2275238 425.14044189 C158.87791443 424.64215088 158.87791443 424.64215088 161.8837738 424.63653564 C162.98978943 424.61784424 164.09580505 424.59915283 165.2353363 424.57989502 C166.96396912 424.57892822 166.96396912 424.57892822 168.7275238 424.57794189 C185.66491963 424.50980295 200.7623369 421.0506498 213.4540863 409.08184814 C218.81767827 403.21025077 224.16400883 395.93931468 226.2275238 388.14044189 C225.50164597 379.71688282 214.32347715 371.01227165 208.68699646 364.99615479 C204.66362014 360.67987667 200.92499871 356.20699978 197.26268005 351.57794189 C196.59107849 350.77356689 195.91947693 349.96919189 195.2275238 349.14044189 C194.54844971 348.27745987 193.86937561 347.41447784 193.16972351 346.52534485 C189.11476489 343.23845621 186.18875764 343.45584562 181.11717224 343.54449463 C180.20740631 343.5404361 179.29764038 343.53637756 178.36030579 343.53219604 C176.38676187 343.52668196 174.41315968 343.53267848 172.43967438 343.54885674 C169.30052856 343.57433079 166.16269316 343.56945689 163.02348328 343.55696106 C156.34135312 343.53620547 149.65962718 343.55584197 142.9775238 343.57794189 C135.26994319 343.59914646 127.56278962 343.60334342 119.85521698 343.57744026 C116.79050763 343.57412079 113.72664354 343.59517151 110.66203308 343.61784363 C86.28470693 343.65350365 65.89130827 337.43876875 48.2275238 320.14044189 C33.95417828 305.26126676 26.99722397 285.5775417 27.12986755 265.14434814 C27.1312825 264.31080307 27.13269745 263.477258 27.13415527 262.61845398 C27.13971212 259.97991203 27.1522564 257.3414578 27.1650238 254.70294189 C27.17004439 252.904115 27.17460632 251.10528677 27.17869568 249.30645752 C27.18966738 244.91775232 27.20690185 240.52911193 27.2275238 236.14044189 C7.65302591 236.7634777 -9.62797705 238.4108127 -24.51856995 252.65606689 C-39.19592785 268.83422916 -40.09483339 288.04228775 -40.0381012 308.73419189 C-40.039453 310.4966843 -40.04139779 312.25917633 -40.04389954 314.02166748 C-40.0468266 317.69264318 -40.04263183 321.3635207 -40.03321838 325.03448486 C-40.02182536 329.70063852 -40.02839792 334.36656196 -40.04036331 339.03270721 C-40.04764774 342.66534101 -40.04526404 346.29792171 -40.04010773 349.93055725 C-40.03878936 351.64946013 -40.04035403 353.36836809 -40.04506683 355.08726501 C-40.09026523 376.19628367 -37.84567673 393.9482409 -22.90138245 410.17169189 C-11.38173404 421.09260598 3.58543569 424.60716603 18.99754333 424.49908447 C20.09945007 424.51878296 20.09945007 424.51878296 21.22361755 424.53887939 C21.87515808 424.53549561 22.52669861 424.53211182 23.19798279 424.52862549 C26.62837824 425.56273724 28.07797354 427.31980246 30.2275238 430.14044189 C30.91522874 433.02483872 30.87900254 435.81130509 30.8290863 438.76544189 C30.83709259 439.5899585 30.84509888 440.4144751 30.85334778 441.26397705 C30.87636808 443.88996928 30.86697373 446.51440877 30.8525238 449.14044189 C30.84867092 451.7661837 30.85215587 454.39124146 30.87312317 457.01690674 C30.88517183 458.64739928 30.88260958 460.27808418 30.86341858 461.9085083 C30.88598963 466.5037993 31.34694646 469.49998962 34.2275238 473.14044189 C37.09641044 474.8936504 39.12016987 475.1342484 42.4775238 475.32794189 C50.98100993 472.63517129 56.38739393 463.82985375 61.77830505 457.09356689 C64.96432186 453.25205381 68.35762012 449.63240504 71.77220154 445.99493408 C75.78509821 441.69242045 79.4820862 437.22476948 83.0947113 432.57794189 C89.7806372 424.93688373 89.7806372 424.93688373 95.68479919 424.49346924 C97.39795581 424.4607125 99.11182569 424.45649383 100.82518005 424.47637939 C101.73706589 424.47159576 102.64895172 424.46681213 103.58847046 424.46188354 C105.50894403 424.45849275 107.42947596 424.4676376 109.34983826 424.48858643 C112.28498619 424.51539588 115.21632122 424.48879606 118.15135193 424.45684814 C120.02180305 424.46015178 121.89225181 424.46655707 123.76268005 424.47637939 C124.63675003 424.46625824 125.51082001 424.45613708 126.41137695 424.44570923 C130.82703062 424.5304637 132.67827413 424.71687433 136.28001404 427.4944458 C138.2275238 430.14044189 138.2275238 430.14044189 138.8525238 433.14044189 C137.99858276 437.23935889 136.50117762 438.56412488 133.2275238 441.14044189 C130.33482014 441.51651609 128.04414417 441.61083763 125.1806488 441.46075439 C123.59733874 441.43822199 122.01400291 441.4174445 120.4306488 441.39825439 C117.95630847 441.34046101 115.48536909 441.2657838 113.01268005 441.15802002 C103.05064676 440.51603381 103.05064676 440.51603381 94.29197693 444.41876221 C92.01861765 447.2190149 90.1153993 450.07091976 88.2275238 453.14044189 C87.20147536 454.34943156 86.14342822 455.5328635 85.0400238 456.67169189 C84.57362488 457.1664502 84.10722595 457.6612085 83.62669373 458.17095947 C83.16496765 458.65588867 82.70324158 459.14081787 82.2275238 459.64044189 C76.3061176 465.95490777 70.7997704 472.56796625 65.4697113 479.39044189 C59.54939071 486.66004486 52.51739036 491.31542917 43.12205505 492.37872314 C34.54100192 492.68461434 26.99677771 489.6951395 20.6962738 483.85528564 C15.7718282 478.10573347 14.09854057 471.70946886 14.12986755 464.28497314 C14.1312825 463.62333664 14.13269745 462.96170013 14.13415527 462.28001404 C14.13974384 460.17094362 14.15229416 458.06198012 14.1650238 455.95294189 C14.17004029 454.5213028 14.17460293 453.08966205 14.17869568 451.65802002 C14.1897095 448.15212601 14.20696626 444.64629439 14.2275238 441.14044189 C13.66702332 441.15856934 13.10652283 441.17669678 12.52903748 441.19537354 C-5.05756276 441.51909869 -22.01392697 434.07864447 -34.7724762 422.14044189 C-47.41269155 409.62354571 -55.79279562 394.07307461 -55.94132996 376.01042175 C-55.94401886 375.06856522 -55.94670776 374.12670868 -55.94947815 373.15631104 C-55.95604935 372.15394409 -55.96262054 371.15157715 -55.96939087 370.11883545 C-55.98908418 366.80442217 -56.00078059 363.49005424 -56.01075745 360.17559814 C-56.01483297 359.03923857 -56.0189085 357.90287899 -56.02310753 356.73208427 C-56.04395605 350.71187396 -56.05826043 344.69168633 -56.06764221 338.67144775 C-56.07867579 332.48150859 -56.11304429 326.29193194 -56.15281391 320.1021204 C-56.17908332 315.31912105 -56.18734343 310.53620653 -56.19092369 305.7531414 C-56.19576664 303.47320559 -56.20731439 301.19327298 -56.22596169 298.91340828 C-56.40476088 275.5948905 -52.17629928 257.17160919 -35.5302887 239.80059814 C-20.7524701 225.62842785 -2.99699103 219.89878524 17.1650238 220.07794189 C18.13504333 220.08245361 19.10506287 220.08696533 20.10447693 220.09161377 C22.4788914 220.10331039 24.85317402 220.11970103 27.2275238 220.14044189 C27.21753105 219.25413086 27.21753105 219.25413086 27.20733643 218.34991455 C27.14021499 212.11901371 27.09540987 205.88821791 27.06272888 199.65704346 C27.04777684 197.34124571 27.02740783 195.02547561 27.00120544 192.70977783 C26.81423845 175.74343993 26.81244812 159.79867278 34.2275238 144.14044189 C33.08388367 144.13109619 31.94024353 144.12175049 30.76194763 144.11212158 C26.45818742 144.07179891 22.1551108 144.00593014 17.85179138 143.93292236 C16.00064474 143.90495505 14.14938406 143.88362193 12.29808044 143.8694458 C-4.45394816 143.73358182 -18.72500853 141.99588992 -31.79981995 130.33184814 C-42.88416503 118.66539303 -45.09181425 105.00159916 -45.1084137 89.59747314 C-45.11485644 88.18273286 -45.12158585 86.76799386 -45.12858582 85.35325623 C-45.14051282 82.39548664 -45.14427156 79.43783341 -45.14308167 76.4800415 C-45.14287913 72.72587861 -45.17013291 68.97247828 -45.20462608 65.21849537 C-45.22708198 62.29701954 -45.23091351 59.37572154 -45.22986221 56.45416832 C-45.23219206 55.0721341 -45.24086429 53.69009295 -45.25652695 52.30814552 C-45.41767575 36.61722443 -41.75632917 24.32417532 -30.8974762 12.89044189 C-22.38466533 4.76531122 -11.87861637 0.0438544 0 0 Z M-21.7724762 27.14044189 C-22.5356012 27.92419189 -23.2987262 28.70794189 -24.0849762 29.51544189 C-29.24606334 37.54379968 -29.22737465 45.96533736 -29.20606995 55.26544189 C-29.21064233 56.62107603 -29.21595101 57.97670787 -29.22195435 59.33233643 C-29.23083925 62.15974403 -29.22851494 64.98686848 -29.21852112 67.81427002 C-29.20702508 71.41527626 -29.22727477 75.01530272 -29.25643826 78.61618042 C-29.27489051 81.41141841 -29.27449025 84.2064253 -29.26880074 87.00170898 C-29.26857545 88.96741918 -29.28538087 90.933108 -29.3026123 92.89874268 C-29.24593229 100.21901428 -28.47952967 105.77212811 -24.7724762 112.14044189 C-24.30325745 112.94997314 -23.8340387 113.75950439 -23.3506012 114.59356689 C-18.38968762 121.30539115 -12.75004373 124.78981011 -4.7724762 127.14044189 C-1.81478391 127.4548675 -1.81478391 127.4548675 1.26121521 127.44342041 C3.01300583 127.46838341 3.01300583 127.46838341 4.80018616 127.49385071 C6.04722321 127.50226486 7.29426025 127.51067902 8.5790863 127.51934814 C10.55230521 127.54531135 12.52552408 127.57127922 14.49873924 127.5975256 C17.25128238 127.63182379 20.00387962 127.65746396 22.7565155 127.68304443 C27.58226717 127.72885542 32.40790094 127.78409777 37.23347473 127.8457489 C39.79984224 127.87766291 42.36627791 127.90456631 44.93275452 127.92597961 C46.09431061 127.93946945 47.2558667 127.95295929 48.45262146 127.96685791 C49.98434494 127.98112572 49.98434494 127.98112572 51.54701233 127.99568176 C53.94924838 128.12541372 55.96111906 128.34421957 58.2275238 129.14044189 C58.94030941 130.44970081 59.59712337 131.78958383 60.2275238 133.14044189 C61.8822195 135.04404908 63.55150738 136.87995953 65.2900238 138.70294189 C69.86129557 143.56774696 74.0742225 148.57694724 78.1572113 153.86309814 C80.32198455 156.24434871 82.39889936 157.63742716 85.2275238 159.14044189 C86.2175238 158.48044189 87.2075238 157.82044189 88.2275238 157.14044189 C88.72017794 154.80648661 88.72017794 154.80648661 88.7040863 152.08966064 C88.7350238 151.08096924 88.7659613 150.07227783 88.7978363 149.03302002 C88.81588318 147.97534424 88.83393005 146.91766846 88.8525238 145.82794189 C88.90377493 143.74842728 88.95834916 141.66899134 89.0165863 139.58966064 C89.03414978 138.665 89.05171326 137.74033936 89.06980896 136.78765869 C89.22664816 134.15513946 89.64822186 131.71011376 90.2275238 129.14044189 C93.63144232 128.13492601 96.87824024 127.94291491 100.4150238 127.76544189 C111.8199013 126.87443584 118.43105263 123.7805103 126.2275238 115.14044189 C130.49822425 109.01291517 132.33286089 103.80649107 132.40452576 96.35308838 C132.41736099 95.18764999 132.43019623 94.02221161 132.44342041 92.82145691 C132.45080734 91.56418289 132.45819427 90.30690887 132.46580505 89.01153564 C132.47791267 87.0615139 132.47791267 87.0615139 132.49026489 85.07209778 C132.50527093 82.31745537 132.5151167 79.56283851 132.52268982 76.8081665 C132.53370308 73.3070621 132.56805095 69.80660224 132.60786152 66.30572414 C132.64056544 62.93685622 132.6448275 59.56804987 132.65330505 56.19903564 C132.67956718 54.33437904 132.67956718 54.33437904 132.70635986 52.43205261 C132.68005113 41.75319907 130.70756929 32.74036112 123.1493988 24.85919189 C114.78133051 17.37555359 106.52382617 15.83977959 95.60154724 15.84991455 C94.55505508 15.84319733 93.50856293 15.8364801 92.43035889 15.82955933 C88.98249009 15.81061508 85.53481636 15.80665677 82.0868988 15.80450439 C79.67944764 15.79807355 77.27199726 15.79134498 74.86454773 15.78433228 C69.82097055 15.77236811 64.77746182 15.76865053 59.73387146 15.76983643 C53.29032868 15.77003946 46.84722771 15.74274902 40.40378952 15.70829201 C35.43132028 15.685987 30.45895671 15.68200001 25.48644257 15.68305588 C23.11193063 15.68070491 20.73741557 15.67190999 18.36295319 15.65639114 C15.03201924 15.63666075 11.70202964 15.64259771 8.37107849 15.65460205 C7.40239334 15.64336304 6.43370819 15.63212402 5.43566895 15.62054443 C-5.58906162 15.72083876 -14.1333767 19.19360616 -21.7724762 27.14044189 Z M238.02049255 32.57012939 C232.9611427 39.82296643 230.09068718 48.27935981 230.11399841 57.11431885 C230.11407394 58.07493729 230.11414948 59.03555573 230.11422729 60.02528381 C230.11938858 61.04941879 230.12454987 62.07355377 230.12986755 63.12872314 C230.1312825 64.18705856 230.13269745 65.24539398 230.13415527 66.33580017 C230.13974221 69.70820978 230.15229237 73.08055243 230.1650238 76.45294189 C230.17004049 78.74265448 230.1746031 81.0323681 230.17869568 83.32208252 C230.18970737 88.92822507 230.20643255 94.5343287 230.2275238 100.14044189 C231.30081184 100.14257942 231.30081184 100.14257942 232.39578247 100.14476013 C239.14924471 100.1626127 245.90209445 100.20429203 252.65524578 100.27253246 C256.12693556 100.30677885 259.59818644 100.33190857 263.0700531 100.33599854 C267.06447847 100.34110784 271.05759086 100.38623655 275.05174255 100.43341064 C276.29461533 100.429478 277.5374881 100.42554535 278.81802368 100.42149353 C288.42347539 100.58403367 288.42347539 100.58403367 291.55101013 103.48931885 C293.2275238 106.14044189 293.2275238 106.14044189 293.2275238 109.26544189 C292.19455905 112.23521556 291.70255549 113.29768443 289.2275238 115.14044189 C286.61341476 115.49726963 286.61341476 115.49726963 283.40910339 115.47187805 C282.19504318 115.4699646 280.98098297 115.46805115 279.73013306 115.46607971 C278.38258112 115.44895681 277.03503174 115.43163125 275.68748474 115.41412354 C274.26985327 115.40676949 272.85221358 115.40087461 271.43457031 115.39633179 C268.37990426 115.38432958 265.32545484 115.36377208 262.27088165 115.33717537 C257.43798013 115.29697092 252.605313 115.28689815 247.77226257 115.28312683 C234.02838406 115.26888245 220.2849632 115.23402022 206.54148865 115.12359619 C198.95212261 115.06286731 191.3635159 115.03780067 183.77391076 115.052535 C179.75828582 115.0587549 175.74461684 115.04633051 171.72934723 114.98964119 C167.94960008 114.93633808 164.17259653 114.92953967 160.39260674 114.95784378 C159.0086601 114.95991547 157.62456286 114.94496589 156.24102211 114.91138649 C148.39753068 114.6028656 148.39753068 114.6028656 141.89235687 118.34899712 C140.11911405 120.87444396 138.66656326 123.41535292 137.2275238 126.14044189 C128.17174366 136.3572195 117.52313648 140.99051304 104.2275238 143.14044189 C104.18885193 144.96768799 104.18885193 144.96768799 104.1493988 146.83184814 C104.0930844 148.45558025 104.03573783 150.07927679 103.9775238 151.70294189 C103.96334412 152.50280518 103.94916443 153.30266846 103.93455505 154.12677002 C103.65359418 161.01031137 101.89177535 165.47619035 96.9150238 170.45294189 C91.53207504 173.83293298 86.59506275 174.6154648 80.41111755 173.65606689 C68.03244542 170.7330173 59.76198506 156.54941888 52.2275238 147.14044189 C48.92827179 149.80299615 47.97769316 152.95897614 46.6025238 156.89044189 C45.96443787 158.67708252 45.96443787 158.67708252 45.3134613 160.49981689 C43.28057506 167.3151046 43.07517149 173.93665885 43.06639099 180.98443604 C43.06142609 181.94808075 43.05646118 182.91172546 43.05134583 183.90457153 C43.03679684 187.07825448 43.02993324 190.25188739 43.0243988 193.42559814 C43.02157143 194.51599333 43.01874405 195.60638851 43.01583099 196.72982597 C43.00086526 202.50366328 42.99162013 208.27747579 42.98728943 214.05133057 C42.98181824 219.98331929 42.95781109 225.91507694 42.92931747 231.84699345 C42.91058894 236.43611794 42.90548001 241.02518799 42.90395355 245.61434746 C42.90094797 247.79937435 42.89299125 249.98440077 42.87976837 252.16938972 C42.75695102 274.02970572 45.02400502 293.74270285 61.2275238 310.14044189 C74.19885876 321.60218184 88.25588396 327.46020362 105.44139099 327.41168213 C106.41978439 327.41690887 107.3981778 327.42213562 108.40621948 327.42752075 C110.51448223 327.4377037 112.62276971 327.44353111 114.73105621 327.44540215 C118.06855887 327.44908437 121.40576933 327.46585882 124.74320984 327.48616028 C134.22637003 327.54141627 143.70957125 327.57232783 153.19285583 327.59674072 C159.00641153 327.61260449 164.8197555 327.64280066 170.6332016 327.6815052 C172.84516913 327.69315444 175.05717446 327.69908555 177.26917267 327.69918633 C180.35675252 327.69937814 183.44374589 327.71762457 186.53123474 327.73980713 C187.44354355 327.73522995 188.35585236 327.73065277 189.29580688 327.72593689 C195.03256495 327.79153779 198.57672127 328.56741352 202.82518005 332.69122314 C203.55027771 333.56327393 203.55027771 333.56327393 204.2900238 334.45294189 C204.88299255 335.15419189 205.4759613 335.85544189 206.0868988 336.57794189 C207.14650818 337.84637939 207.14650818 337.84637939 208.2275238 339.14044189 C210.15915789 341.41629944 212.09922539 343.68489803 214.0400238 345.95294189 C214.55677673 346.55831787 215.07352966 347.16369385 215.60594177 347.78741455 C218.81103681 351.5298549 222.07894286 355.20086324 225.4150238 358.82794189 C228.71622961 362.42011937 231.85474673 366.09094249 234.9150238 369.89044189 C241.65431712 379.0400866 241.65431712 379.0400866 251.2275238 384.14044189 C255.20123238 383.9002727 258.78423682 383.36587424 261.8837738 380.73419189 C264.86464345 377.19874185 266.34209018 374.65126007 266.40110779 370.10552979 C266.42134254 368.85897362 266.42134254 368.85897362 266.44198608 367.5872345 C266.45242447 366.6882695 266.46286285 365.7893045 266.47361755 364.86309814 C266.50655046 362.96921322 266.5397622 361.07533312 266.57322693 359.18145752 C266.62069397 356.18808257 266.66513136 353.194728 266.70433044 350.20123291 C266.74398352 347.31748058 266.79553947 344.43413018 266.84861755 341.55059814 C266.85703171 340.65365738 266.86544586 339.75671661 266.87411499 338.83259583 C266.89907799 337.58131142 266.89907799 337.58131142 266.92454529 336.30474854 C266.94000648 335.20460167 266.94000648 335.20460167 266.95578003 334.08222961 C267.2275238 332.14044189 267.2275238 332.14044189 269.2275238 329.14044189 C271.95482339 328.23134203 273.69129814 327.99529378 276.5087738 327.92950439 C294.70879085 327.3666715 312.64392271 323.7096965 326.20799255 310.45684814 C338.05583425 296.8673508 344.53595409 281.89876629 344.51805115 263.82574463 C344.52476837 262.83575974 344.5314856 261.84577484 344.53840637 260.82579041 C344.55729554 257.5751534 344.56130649 254.32472402 344.5634613 251.07403564 C344.56989728 248.79352232 344.57662622 246.51300981 344.58363342 244.23249817 C344.59558482 239.45724578 344.59931662 234.6820656 344.59812927 229.90679932 C344.59792662 223.82700013 344.62518377 217.74767115 344.65967369 211.66798306 C344.68206011 206.95695425 344.68596317 202.24603631 344.68490982 197.53495979 C344.68724987 195.29576059 344.6959819 193.05655756 344.71157455 190.81741142 C344.84774405 169.23701266 342.23687383 151.84179702 327.86424255 134.78497314 C324.0242598 130.93361267 319.80019081 128.05756369 315.2431488 125.11309814 C312.39323143 123.24883872 309.73311613 121.4490681 307.2275238 119.14044189 C306.68525829 114.72485124 306.73915415 112.87299638 309.2275238 109.14044189 C312.97774281 107.7839797 314.96504526 107.66800495 318.7118988 109.07012939 C336.24419371 118.03896234 349.22702694 133.1389513 355.4462738 151.79669189 C359.39200999 165.21219492 359.39200999 165.21219492 359.12205505 172.20684814 C358.90547451 179.96249416 359.10770949 185.86533819 364.3434906 191.94488525 C369.94527256 197.81734147 369.94527256 197.81734147 377.2275238 201.14044189 C380.12633636 199.82279982 381.78815049 199.01918853 383.2275238 196.14044189 C383.34664902 193.93680985 383.40671764 191.72987565 383.4384613 189.52325439 C383.46653222 188.18079433 383.4951967 186.83834658 383.5243988 185.49591064 C383.56563645 183.38051732 383.60252491 181.26535315 383.62889099 179.14971924 C383.6565522 177.10708228 383.70242112 175.06548778 383.7509613 173.02325439 C383.77078064 171.80009521 383.79059998 170.57693604 383.8110199 169.31671143 C384.25770295 165.91029498 384.72183919 164.46566365 387.2275238 162.14044189 C389.21360779 161.58209229 389.21360779 161.58209229 391.47361755 161.48809814 C392.305224 161.43709961 393.13683044 161.38610107 393.99363708 161.33355713 C394.8751947 161.2904541 395.75675232 161.24735107 396.6650238 161.20294189 C410.32389311 160.15028926 419.7912524 156.41773571 429.2275238 146.14044189 C438.33437056 135.14676431 438.68415663 123.35666671 438.6259613 109.67169189 C438.62798664 107.98358027 438.6309019 106.2954695 438.63465881 104.60736084 C438.63906054 101.08395996 438.63272098 97.56078857 438.61863708 94.03741455 C438.60154643 89.54552182 438.61139923 85.05416705 438.62935448 80.56229401 C438.64025081 77.08077012 438.63671931 73.59937151 438.6289711 70.11784363 C438.62698522 68.46262039 438.62937098 66.80738537 438.63640976 65.1521759 C438.68820478 49.55305706 436.31355274 38.58021857 425.4775238 26.89044189 C415.34299499 17.18140856 403.36628145 15.84004282 389.94944763 15.84991455 C387.97465927 15.83983871 387.97465927 15.83983871 385.9599762 15.82955933 C382.36669761 15.81197912 378.77351444 15.80720725 375.180197 15.80592775 C372.92871198 15.80450069 370.67725079 15.80022057 368.42577171 15.79493332 C360.55230053 15.77645716 352.67889681 15.76825939 344.80540466 15.76983643 C337.49700572 15.77103613 330.1889029 15.7499613 322.88057882 15.7183491 C316.58131407 15.69208472 310.28214541 15.68147341 303.98282641 15.68274724 C300.2315561 15.68325404 296.48054904 15.67772932 292.72933388 15.65639114 C289.19558394 15.63683706 285.66234369 15.63699935 282.12857437 15.65142441 C280.2357965 15.65446822 278.34301762 15.63795568 276.45031738 15.62054443 C260.91314168 15.73299962 248.14763867 20.64394934 238.02049255 32.57012939 Z M359.2275238 275.14044189 C359.0428656 276.06115479 358.8582074 276.98186768 358.66795349 277.93048096 C355.88429259 291.42433905 352.04314182 303.30722883 343.2275238 314.14044189 C342.57139099 314.97059814 341.91525818 315.80075439 341.23924255 316.65606689 C328.68181299 331.62397197 310.39974386 340.45982379 291.05125427 342.47052002 C288.11110359 342.71729422 285.17135013 342.9427749 282.2275238 343.14044189 C281.88532223 348.27995812 281.59831292 353.41860556 281.36082458 358.56402588 C281.27254918 360.3115879 281.1695516 362.05847352 281.05125427 363.80426025 C280.05002981 373.62868506 280.05002981 373.62868506 282.7665863 382.78057861 C284.82909686 384.67237462 286.72252355 385.90675971 289.2275238 387.14044189 C290.35674255 387.76048096 291.4859613 388.38052002 292.6493988 389.01934814 C297.70511299 390.60339833 302.64284718 390.90704097 307.9072113 391.22442627 C308.67807068 391.28823486 309.44893005 391.35204346 310.2431488 391.41778564 C310.93698669 391.4615332 311.63082458 391.50528076 312.34568787 391.550354 C315.09478039 392.41238782 315.84941037 393.64341719 317.2275238 396.14044189 C317.62815857 398.85772705 317.62815857 398.85772705 317.66893005 401.92950439 C317.69535583 403.03552002 317.72178162 404.14153564 317.74900818 405.28106689 C317.76254333 406.43091064 317.77607849 407.58075439 317.7900238 408.76544189 C317.82436011 411.04944215 317.86690729 413.33333853 317.91893005 415.61700439 C317.93125671 416.62843506 317.94358337 417.63986572 317.95628357 418.6819458 C317.98772454 421.31750875 317.98772454 421.31750875 320.2275238 423.14044189 C322.63148193 423.6672781 322.63148193 423.6672781 325.2275238 423.14044189 C327.4866427 421.34476986 327.4866427 421.34476986 329.4775238 418.82794189 C330.64348083 417.45895752 330.64348083 417.45895752 331.83299255 416.06231689 C332.62318787 415.09809814 333.41338318 414.13387939 334.2275238 413.14044189 C334.98678162 412.21747314 335.74603943 411.29450439 336.52830505 410.34356689 C338.02823392 408.50945698 339.52437482 406.67224231 341.0165863 404.83184814 C350.19796715 393.65522022 350.19796715 393.65522022 353.2275238 392.14044189 C355.05341986 392.03599876 356.88305562 391.99444807 358.7118988 391.98272705 C359.86069519 391.9724649 361.00949158 391.96220276 362.19309998 391.95162964 C364.06638977 391.94067764 364.06638977 391.94067764 365.9775238 391.92950439 C367.93843959 391.90861772 369.89935537 391.88771337 371.86026001 391.86580467 C376.69859349 391.81273536 381.536938 391.76863282 386.37547302 391.73907471 C389.08508773 391.72207804 391.79442479 391.69728171 394.50389099 391.66421509 C397.05260443 391.63344995 399.60148513 391.61387345 402.15037537 391.60714722 C413.27568505 391.45015835 422.59594279 389.46571084 431.2275238 382.14044189 C440.73807375 372.11075713 441.38174358 360.64891362 441.39549255 347.46856689 C441.39882095 346.3503656 441.40214935 345.23216431 441.40557861 344.08007812 C441.4106275 341.71999521 441.41298757 339.3599052 441.41282654 336.99981689 C441.41500802 333.41636184 441.43317208 329.83321737 441.45213318 326.24981689 C441.45506864 323.9477346 441.45705241 321.64565086 441.45799255 319.34356689 C441.46877083 317.75551239 441.46877083 317.75551239 441.47976685 316.13537598 C441.44301196 303.97799136 439.95513454 293.62450647 431.5947113 284.32403564 C425.02480348 278.22777234 416.71865158 275.00611683 407.81639099 275.0269165 C406.19516327 275.0270298 406.19516327 275.0270298 404.54118347 275.02714539 C403.38064453 275.03230667 402.22010559 275.03746796 401.0243988 275.04278564 C399.23500885 275.04490807 399.23500885 275.04490807 397.4094696 275.04707336 C393.59879551 275.05267152 389.78818014 275.06522371 385.9775238 275.07794189 C383.39419132 275.08295713 380.81085791 275.08752 378.2275238 275.09161377 C371.89417043 275.10264034 365.56085131 275.11937666 359.2275238 275.14044189 Z " fill="#000000" transform="translate(55.77247619628906,9.85955810546875)"/>
<path d="M0 0 C10.70446553 7.97209445 18.45101545 18.75734656 21 32 C22.22428023 43.39625401 21.73805498 55.73498236 15.30078125 65.60546875 C13.80345507 67.85949772 13.80345507 67.85949772 14.125 70.1328125 C15.12938747 72.27610363 16.2040669 73.34673 18 74.875 C20.27086971 77.04737416 20.99531386 77.9864929 22.0625 81.0625 C21.98739855 84.59226798 21.13944461 86.22664587 19 89 C15.73952371 90.63023814 13.62198965 90.4673535 10 90 C7.75960596 88.29362912 5.84101235 86.46728989 3.89453125 84.43359375 C2.13950387 82.77929595 2.13950387 82.77929595 0.08203125 83.1328125 C-2.36653061 84.15266378 -4.74404442 85.26784689 -7.125 86.4375 C-20.10308894 92.40880156 -32.42980406 92.01799098 -46 88 C-59.35541325 82.468274 -68.05187735 73.13047597 -74.3203125 60.296875 C-78.93664097 48.73991282 -78.86228076 34.18008847 -74.2578125 22.63671875 C-68.16962735 9.87421882 -59.87290394 0.41819589 -46.5390625 -5 C-30.73324469 -10.46114635 -14.22160201 -8.97261956 0 0 Z M-54.3125 20.25 C-61.09505768 28.94074243 -62.16351045 38.19597443 -61 49 C-60.12553703 52.37012135 -58.85480799 55.06466523 -57 58 C-56.57589844 58.69609375 -56.15179688 59.3921875 -55.71484375 60.109375 C-50.66492265 67.59282354 -43.45167291 72.31463232 -34.7421875 74.59375 C-26.04031246 75.88291667 -18.46910335 74.54004321 -11 70 C-11.39832031 69.55269531 -11.79664063 69.10539062 -12.20703125 68.64453125 C-20.05717235 59.68658435 -20.05717235 59.68658435 -19.875 54.3125 C-19 51 -19 51 -16 49 C-13.3125 48.4375 -13.3125 48.4375 -10 49 C-7.77309332 50.61535087 -5.81729234 52.37040616 -3.83203125 54.2734375 C-1.91178216 56.17940899 -1.91178216 56.17940899 1 58 C5.46623825 49.3466634 6.50664036 40.75163211 4.375 31.19921875 C1.20162752 22.08993973 -4.74240436 15.85754899 -13.25 11.5 C-28.12547233 4.56325124 -43.11063188 8.31635155 -54.3125 20.25 Z " fill="#000000" transform="translate(343,194)"/>
<path d="M0 0 C4.90010318 4.94057064 6.93895377 10.23745754 9.2578125 16.72265625 C9.64324722 17.76882111 10.02868195 18.81498596 10.42579651 19.89285278 C11.6704756 23.27861153 12.89808034 26.67026984 14.125 30.0625 C15.39742013 33.54477636 16.67330832 37.02576951 17.94932556 40.50672913 C18.79090676 42.80380936 19.63097212 45.10144553 20.46949768 47.39964294 C22.81062445 53.80648153 25.20059537 60.18893818 27.69140625 66.5390625 C27.9564093 67.21809128 28.22141235 67.89712006 28.4944458 68.59672546 C29.66576668 71.59492273 30.84884949 74.58741254 32.05322266 77.57250977 C34.29208499 83.3071634 35.72663359 87.8271418 35 94 C32.42627616 97.02791041 30.84753406 97.86162709 26.9375 98.5 C24 98 24 98 20 94 C18.02 89.05 16.04 84.1 14 79 C-5.305 78.505 -5.305 78.505 -25 78 C-25.99 81.3 -26.98 84.6 -28 88 C-31.36842105 95.57894737 -31.36842105 95.57894737 -35 98 C-38.97879218 98.60546838 -40.54750501 98.29845414 -43.9375 96.0625 C-46.49465215 92.26551651 -46.12321297 90.86040222 -45.51675415 86.5178833 C-44.61753279 82.13642947 -43.03277876 78.07791952 -41.38671875 73.9296875 C-41.02073578 72.98206543 -40.65475281 72.03444336 -40.27767944 71.05810547 C-39.09115533 67.99299371 -37.88964985 64.93401294 -36.6875 61.875 C-35.86616298 59.76355023 -35.04577459 57.65173121 -34.22631836 55.53955078 C-32.59128418 51.32901197 -30.95066003 47.1207188 -29.30566406 42.9140625 C-27.26143557 37.68056745 -25.24470667 32.43707314 -23.2421875 27.1875 C-22.43303198 25.07185221 -21.62350564 22.95634669 -20.81387329 20.84088135 C-20.31741855 19.5419649 -19.82209692 18.24261474 -19.32797241 16.94281006 C-18.65151681 15.16588938 -17.96850598 13.39146832 -17.28515625 11.6171875 C-16.91269775 10.64378418 -16.54023926 9.67038086 -16.15649414 8.66748047 C-14.67693841 5.25485097 -13.23182246 2.00370719 -10.3125 -0.375 C-6.77049103 -1.33229972 -3.37281708 -1.40691066 0 0 Z M-6 28 C-7.7154487 32.35743741 -9.42425649 36.71739779 -11.12695312 41.07983398 C-11.70716309 42.56362037 -12.28918376 44.04670004 -12.87304688 45.52905273 C-13.71180241 47.65946325 -14.54402056 49.79232763 -15.375 51.92578125 C-15.63748535 52.58838455 -15.8999707 53.25098785 -16.17041016 53.93367004 C-17.27483362 56.78572234 -18 58.91109914 -18 62 C-9.42 62 -0.84 62 8 62 C5.73116216 54.4372072 3.30453531 47.25709259 0.4375 39.9375 C-0.16094727 38.37225586 -0.16094727 38.37225586 -0.77148438 36.77539062 C-1.3505957 35.29135742 -1.3505957 35.29135742 -1.94140625 33.77734375 C-2.28888916 32.88265381 -2.63637207 31.98796387 -2.99438477 31.06616211 C-3.82054468 28.83617836 -3.82054468 28.83617836 -6 28 Z " fill="#000000" transform="translate(229,186)"/>
<path d="M0 0 C1.20772568 -0.01210762 1.20772568 -0.01210762 2.43984985 -0.02445984 C4.14282082 -0.03828175 5.84581927 -0.04901237 7.54882812 -0.05688477 C10.14767044 -0.0741101 12.7452442 -0.11801262 15.34375 -0.16210938 C16.99999067 -0.17223589 18.65624212 -0.18075212 20.3125 -0.1875 C21.08661224 -0.20500809 21.86072449 -0.22251617 22.65829468 -0.24055481 C26.35739894 -0.22574453 28.56976874 0.10420817 31.75244141 2.05004883 C34.5825969 5.0908884 34.86126709 7.1226199 34.7890625 11.23828125 C33.20605469 13.93041992 33.20605469 13.93041992 30.7890625 16.23828125 C27.67285156 16.8059082 27.67285156 16.8059082 24.0546875 16.7265625 C22.11142578 16.70239258 22.11142578 16.70239258 20.12890625 16.67773438 C18.76560822 16.63596064 17.40232698 16.59363595 16.0390625 16.55078125 C14.66019626 16.52569035 13.28128653 16.50287854 11.90234375 16.48242188 C8.53078306 16.42347851 5.15978529 16.33379921 1.7890625 16.23828125 C1.7890625 24.48828125 1.7890625 32.73828125 1.7890625 41.23828125 C3.61953125 41.191875 5.45 41.14546875 7.3359375 41.09765625 C9.73696287 41.06014023 12.13800586 41.02373989 14.5390625 40.98828125 C15.745625 40.95476562 16.9521875 40.92125 18.1953125 40.88671875 C19.35546875 40.87382812 20.515625 40.8609375 21.7109375 40.84765625 C22.77924805 40.82670898 23.84755859 40.80576172 24.94824219 40.78417969 C28.50064175 41.3520263 29.64838586 42.39375115 31.7890625 45.23828125 C32.2890625 48.73828125 32.2890625 48.73828125 31.7890625 52.23828125 C29.57043221 55.14545198 28.26961321 56.07809768 24.7890625 57.23828125 C23.01592399 57.32037917 21.23985475 57.34574419 19.46484375 57.3359375 C18.43681641 57.33271484 17.40878906 57.32949219 16.34960938 57.32617188 C15.27775391 57.31779297 14.20589844 57.30941406 13.1015625 57.30078125 C12.01810547 57.29626953 10.93464844 57.29175781 9.81835938 57.28710938 C7.14187165 57.27531868 4.46549473 57.25886188 1.7890625 57.23828125 C1.79953613 58.24205811 1.81000977 59.24583496 1.82080078 60.2800293 C1.85709703 64.01664643 1.8799979 67.75324808 1.89892578 71.48999023 C1.90896146 73.10492578 1.92259301 74.71984325 1.93994141 76.3347168 C1.96429715 78.66069 1.97556997 80.9864222 1.984375 83.3125 C1.99469757 84.03040207 2.00502014 84.74830414 2.01565552 85.48796082 C2.01654762 89.50567452 1.74630733 92.69174061 -0.2109375 96.23828125 C-3.9315211 98.71867032 -5.80890321 98.70165328 -10.2109375 98.23828125 C-12.40223694 96.75660706 -12.40223694 96.75660706 -14.2109375 94.23828125 C-14.60031344 91.22587213 -14.74803985 88.58104817 -14.71264648 85.57006836 C-14.71804947 84.69648178 -14.72345245 83.8228952 -14.72901917 82.9228363 C-14.74152139 80.03675405 -14.72500692 77.15166634 -14.70703125 74.265625 C-14.70718619 72.26070605 -14.70867432 70.2557868 -14.71144104 68.25086975 C-14.71282566 64.05016837 -14.70025528 59.84980817 -14.67749023 55.64916992 C-14.64908723 50.25962364 -14.6518471 44.87064356 -14.66458035 39.48105526 C-14.67152824 35.34183397 -14.66375872 31.20274403 -14.65132332 27.06353951 C-14.64680145 25.07597927 -14.64647841 23.08840497 -14.65038872 21.10084343 C-14.65329268 18.32596698 -14.63683383 15.55187681 -14.61499023 12.77709961 C-14.61949188 11.95260315 -14.62399353 11.12810669 -14.62863159 10.27862549 C-14.55509717 4.66873823 -14.55509717 4.66873823 -12.8742075 2.56636906 C-9.08124253 -0.46223756 -4.60649476 0.04372858 0 0 Z " fill="#000000" transform="translate(149.2109375,185.76171875)"/>
</svg>
