<?xml version="1.0" encoding="UTF-8"?>
<svg version="1.1" xmlns="http://www.w3.org/2000/svg" width="225" height="225">
<path d="M0 0 C1.3111377 0.00757324 2.62227539 0.01514648 3.97314453 0.02294922 C14.19698845 0.195807 23.52926582 1.28677363 33.25 4.4375 C33.9315918 4.65180664 34.61318359 4.86611328 35.31542969 5.08691406 C63.03886517 14.01612183 86.78547978 33.55528438 100.56176758 59.28173828 C114.31402404 86.32996751 118.1330948 118.00404958 108.7734375 147.13671875 C98.17332555 178.45424021 76.78902926 201.48598443 47.3515625 216.16796875 C20.43001717 228.74641219 -11.23098894 228.72878683 -38.95703125 218.94140625 C-67.92036923 207.77727363 -89.64824743 186.14052452 -103.11328125 158.42578125 C-115.19980765 130.53769668 -115.16442183 98.33323242 -104.23266602 70.14648438 C-92.66001513 42.05814382 -70.49977213 20.39243598 -42.75 8.4375 C-28.78954244 2.68200458 -15.13990453 -0.12366316 0 0 Z M-52.75 79.4375 C-52.75 101.2175 -52.75 122.9975 -52.75 145.4375 C-48.13 145.4375 -43.51 145.4375 -38.75 145.4375 C-38.75 136.8575 -38.75 128.2775 -38.75 119.4375 C-35.5325 119.52 -32.315 119.6025 -29 119.6875 C-27.99227539 119.70329102 -26.98455078 119.71908203 -25.94628906 119.73535156 C-19.38368244 119.98583273 -19.38368244 119.98583273 -16.1796875 122.26953125 C-11.94961193 128.6839901 -11.82696462 138.05259971 -10.75 145.4375 C-6.13 145.4375 -1.51 145.4375 3.25 145.4375 C2.85209507 141.91362987 2.43243437 138.39465909 2 134.875 C1.89042969 133.88435547 1.78085938 132.89371094 1.66796875 131.87304688 C0.90199896 125.80575985 -0.17262108 121.44583048 -3.75 116.4375 C-5.86341126 115.40224868 -5.86341126 115.40224868 -7.75 115.4375 C-6.986875 114.695 -6.22375 113.9525 -5.4375 113.1875 C-0.52632889 108.1621156 1.39133744 104.78624202 1.5625 97.6875 C1.4930377 91.93602115 0.88698264 88.91378632 -2.75 84.4375 C-7.02895431 81.26718385 -11.41485064 79.30710521 -16.76245117 79.32397461 C-17.98007141 79.32415588 -17.98007141 79.32415588 -19.22229004 79.32434082 C-20.494776 79.33201477 -20.494776 79.33201477 -21.79296875 79.33984375 C-22.57627563 79.34085083 -23.35958252 79.34185791 -24.16662598 79.34289551 C-27.09026556 79.34812412 -30.01388426 79.36208539 -32.9375 79.375 C-42.7446875 79.4059375 -42.7446875 79.4059375 -52.75 79.4375 Z M14.25 101.9375 C11.54865946 105.60360502 11.53511257 109.45728084 11.79296875 113.8828125 C12.13397171 116.6182351 12.13397171 116.6182351 13.9375 119.375 C19.01593894 122.53704688 24.5090638 123.87856809 30.25 125.4375 C31.98402205 125.92039222 33.7141015 126.41796658 35.4375 126.9375 C36.13230469 127.1334375 36.82710937 127.329375 37.54296875 127.53125 C39.8459816 128.75390213 40.3971098 130.01325231 41.25 132.4375 C40.5625 134.625 40.5625 134.625 39.25 136.4375 C34.69937587 137.95437471 30.86765604 138.15645824 26.4375 136.1875 C24.25 134.4375 24.25 134.4375 22.25 130.4375 C18.29 130.4375 14.33 130.4375 10.25 130.4375 C11.18031298 136.43285029 12.44907674 139.56813314 17.3515625 143.25 C24.59307467 147.77967017 34.56207944 147.49180303 42.7578125 145.97265625 C47.85727871 144.3342346 50.28038272 141.66695492 53.25 137.4375 C55.11019529 133.71710941 54.67338141 129.49811257 54.25 125.4375 C52.28208551 121.12683017 49.55699723 119.98988889 45.3125 118.375 C43.29848805 117.70819875 41.27689772 117.06404104 39.25 116.4375 C38.05890625 116.06238281 36.8678125 115.68726562 35.640625 115.30078125 C32.51547863 114.32843768 29.38581833 113.37475572 26.25 112.4375 C25.92 110.7875 25.59 109.1375 25.25 107.4375 C28.95126859 104.96998761 30.87223532 105.13028844 35.25 105.4375 C37.5625 106.1875 37.5625 106.1875 39.25 107.4375 C39.91 108.7575 40.57 110.0775 41.25 111.4375 C45.21 111.4375 49.17 111.4375 53.25 111.4375 C52.93268344 106.9950682 51.87568537 104.06694527 48.8046875 100.76171875 C42.95391432 95.77827124 35.90926881 95.96857224 28.59765625 96.15625 C22.63225262 96.65742743 18.93577348 98.03268877 14.25 101.9375 Z " fill="#009C00" transform="translate(111.75,-0.4375)"/>
<path d="M0 0 C3.58413652 -0.10788371 7.16503148 -0.18726305 10.75 -0.25 C11.76578125 -0.28351563 12.7815625 -0.31703125 13.828125 -0.3515625 C21.33999404 -0.45040288 21.33999404 -0.45040288 24.64453125 1.8046875 C26.58612254 4.94928204 26.93643147 7.31302522 27 11 C25.48483372 15.01519063 24.5944747 16.60368353 21 19 C18.73168945 19.22705078 18.73168945 19.22705078 16.11328125 19.1953125 C15.17548828 19.18886719 14.23769531 19.18242188 13.27148438 19.17578125 C11.80678711 19.15064453 11.80678711 19.15064453 10.3125 19.125 C9.32443359 19.11597656 8.33636719 19.10695313 7.31835938 19.09765625 C4.87880294 19.07408566 2.43937099 19.03821469 0 19 C0 12.73 0 6.46 0 0 Z " fill="#019C01" transform="translate(73,90)"/>
<path d="M0 0 C0.66 0 1.32 0 2 0 C1.95359375 0.89203125 1.9071875 1.7840625 1.859375 2.703125 C1.82328125 3.87359375 1.7871875 5.0440625 1.75 6.25 C1.70359375 7.41015625 1.6571875 8.5703125 1.609375 9.765625 C1.74174891 13.02273986 1.74174891 13.02273986 3.62890625 15.29296875 C6.42912435 17.30894125 8.86400905 18.14526415 12.1875 19.0625 C13.33347656 19.39507812 14.47945312 19.72765625 15.66015625 20.0703125 C17.68690008 20.63448213 19.71516145 21.19328688 21.74609375 21.7421875 C27.57466585 23.44577672 27.57466585 23.44577672 30.0625 26.6875 C30.371875 27.450625 30.68125 28.21375 31 29 C28.375 33.875 28.375 33.875 25 35 C20.68839171 35.4067555 18.47992329 35.25773658 14.625 33.1875 C12 31 12 31 11 28 C7.04 27.67 3.08 27.34 -1 27 C-0.67 26.01 -0.34 25.02 0 24 C1.98 24.33 3.96 24.66 6 25 C6 23.02 6 21.04 6 19 C5.38125 18.731875 4.7625 18.46375 4.125 18.1875 C1.47934811 16.70904747 0.37724674 14.98293734 -0.703125 12.16796875 C-2.00547726 7.45159305 -2.08024374 4.62276386 0 0 Z " fill="#069607" transform="translate(123,103)"/>
<path d="M0 0 C7.321875 -0.04125 14.64375 -0.0825 22.1875 -0.125 C24.49129639 -0.14320801 26.79509277 -0.16141602 29.16870117 -0.18017578 C31.001788 -0.18601892 32.83487742 -0.1911149 34.66796875 -0.1953125 C35.61401978 -0.20554443 36.5600708 -0.21577637 37.53479004 -0.22631836 C46.0871143 -0.22858238 46.0871143 -0.22858238 50 2 C51.8125 4.125 51.8125 4.125 53 6 C52.46375 5.71125 51.9275 5.4225 51.375 5.125 C45.37828393 2.28445028 40.19613699 1.67501986 33.6640625 1.5859375 C32.88377686 1.56829346 32.10349121 1.55064941 31.29956055 1.5324707 C28.40824299 1.46980535 25.51659251 1.42334213 22.625 1.375 C16.14875 1.25125 9.6725 1.1275 3 1 C3 22.78 3 44.56 3 67 C7.62 67 12.24 67 17 67 C17 58.42 17 49.84 17 41 C23.6 41 30.2 41 37 41 C37 41.33 37 41.66 37 42 C30.73 42 24.46 42 18 42 C18.33 50.58 18.66 59.16 19 68 C12.73 68 6.46 68 0 68 C0 45.56 0 23.12 0 0 Z " fill="#1C7C1A" transform="translate(56,78)"/>
<path d="M0 0 C3.58413652 -0.10788371 7.16503148 -0.18726305 10.75 -0.25 C11.76578125 -0.28351563 12.7815625 -0.31703125 13.828125 -0.3515625 C21.33999404 -0.45040288 21.33999404 -0.45040288 24.64453125 1.8046875 C26.58612254 4.94928204 26.93643147 7.31302522 27 11 C25.48483372 15.01519063 24.5944747 16.60368353 21 19 C18.73168945 19.22705078 18.73168945 19.22705078 16.11328125 19.1953125 C15.17548828 19.18886719 14.23769531 19.18242188 13.27148438 19.17578125 C11.80678711 19.15064453 11.80678711 19.15064453 10.3125 19.125 C9.32443359 19.11597656 8.33636719 19.10695313 7.31835938 19.09765625 C4.87880294 19.07408566 2.43937099 19.03821469 0 19 C0 12.73 0 6.46 0 0 Z M2 1 C2 5.95 2 10.9 2 16 C6.09628292 17.02407073 9.87541932 17.25596876 14.0625 17.3125 C14.78244141 17.34150391 15.50238281 17.37050781 16.24414062 17.40039062 C20.49868113 17.45620575 20.49868113 17.45620575 23.984375 15.24609375 C25.07092652 12.84314326 25.31830983 11.36619668 25.1875 8.75 C25.125625 7.5125 25.06375 6.275 25 5 C19.9410499 1.98564155 15.85151676 1.48235431 10.125 1.3125 C9.34125 1.27833984 8.5575 1.24417969 7.75 1.20898438 C5.83381252 1.12719588 3.91693285 1.0619054 2 1 Z " fill="#158215" transform="translate(73,90)"/>
<path d="M0 0 C0.99 0.66 1.98 1.32 3 2 C1.02 2.33 -0.96 2.66 -3 3 C0.33562767 7.51290803 2.33289301 9.68206814 8 11 C8 11.66 8 12.32 8 13 C2.13117727 12.46647066 -3.64619754 11.59914891 -9 9 C-11 6 -11 6 -10.8125 3.9375 C-8.77180808 -0.92876536 -4.52439052 -0.32317075 0 0 Z " fill="#0F880E" transform="translate(147,104)"/>
<path d="M0 0 C0.66 0 1.32 0 2 0 C2 2.64 2 5.28 2 8 C2.99 8.33 3.98 8.66 5 9 C6.125 14.75 6.125 14.75 5 17 C6.32 16.67 7.64 16.34 9 16 C9 16.66 9 17.32 9 18 C8.34 18.33 7.68 18.66 7 19 C7.33 19.99 7.66 20.98 8 22 C7.34 22 6.68 22 6 22 C6.66 23.32 7.32 24.64 8 26 C7.34 26.99 6.68 27.98 6 29 C4.35 28.67 2.7 28.34 1 28 C1 27.34 1 26.68 1 26 C-2.63 26 -6.26 26 -10 26 C-10 25.67 -10 25.34 -10 25 C-5.38 25 -0.76 25 4 25 C3.34 23.35 2.68 21.7 2 20 C1.58935547 17.59643555 1.58935547 17.59643555 1.3671875 15.13671875 C1.28339844 14.25048828 1.19960937 13.36425781 1.11328125 12.45117188 C1.03464844 11.53916016 0.95601562 10.62714844 0.875 9.6875 C0.78863281 8.75615234 0.70226562 7.82480469 0.61328125 6.86523438 C0.40209195 4.57735027 0.19788734 2.28906654 0 0 Z " fill="#0A8E0B" transform="translate(111,120)"/>
<path d="M0 0 C1.32 0.33 2.64 0.66 4 1 C-5.28823641 10.05282028 -15.9905564 17.91908155 -28 23 C-28.66 22.67 -29.32 22.34 -30 22 C-29.67 21.34 -29.34 20.68 -29 20 C-25.9375 19.375 -25.9375 19.375 -23 19 C-23 18.34 -23 17.68 -23 17 C-22.01 17 -21.02 17 -20 17 C-20 16.34 -20 15.68 -20 15 C-19.01 14.67 -18.02 14.34 -17 14 C-16.67 13.34 -16.34 12.68 -16 12 C-14.35 12 -12.7 12 -11 12 C-10.67 11.01 -10.34 10.02 -10 9 C-9.01 9 -8.02 9 -7 9 C-7 8.34 -7 7.68 -7 7 C-6.34 7 -5.68 7 -5 7 C-5 6.34 -5 5.68 -5 5 C-4.34 5 -3.68 5 -3 5 C-3 4.34 -3 3.68 -3 3 C-2.01 3 -1.02 3 0 3 C0 2.01 0 1.02 0 0 Z " fill="#138211" transform="translate(188,192)"/>
<path d="M0 0 C0 0.33 0 0.66 0 1 C-5.39460953 3.27141454 -10.26157749 3.20413361 -16 3 C-15.67 3.99 -15.34 4.98 -15 6 C-18.13498292 7.85776765 -20.37471432 8.20140476 -24 8 C-24 7.34 -24 6.68 -24 6 C-23.01 5.67 -22.02 5.34 -21 5 C-23.97 5 -26.94 5 -30 5 C-21.52462183 -0.65025211 -9.84353341 -0.44148738 0 0 Z " fill="#0B920C" transform="translate(110,0)"/>
<path d="M0 0 C12.86022545 -1.01975356 26.00888474 2.5588462 38 7 C34.26141745 8.18803845 31.80485731 7.53122423 28.0390625 6.48046875 C25.33270681 5.84276425 22.76595447 5.86170228 20 6 C20 5.01 20 4.02 20 3 C18.83984375 3.16048828 18.83984375 3.16048828 17.65625 3.32421875 C10.77659615 4.1160601 6.26196402 4.01055962 0 1 C0 0.67 0 0.34 0 0 Z " fill="#1F9A1C" transform="translate(116,0)"/>
<path d="M0 0 C0.33 0 0.66 0 1 0 C0.98259766 1.42892578 0.98259766 1.42892578 0.96484375 2.88671875 C0.95582031 4.14097656 0.94679688 5.39523438 0.9375 6.6875 C0.92589844 7.92886719 0.91429687 9.17023438 0.90234375 10.44921875 C0.89703745 13.89732838 0.89703745 13.89732838 1.5625 16.8125 C2.10972438 19.54862188 1.45744702 20.68523121 0 23 C-0.66 23 -1.32 23 -2 23 C-2.33 25.64 -2.66 28.28 -3 31 C-3.33 31 -3.66 31 -4 31 C-4.7723236 20.25182992 -2.43307134 10.38400091 0 0 Z " fill="#089C08" transform="translate(4,80)"/>
<path d="M0 0 C0.66 0 1.32 0 2 0 C1.95359375 0.89203125 1.9071875 1.7840625 1.859375 2.703125 C1.82328125 3.87359375 1.7871875 5.0440625 1.75 6.25 C1.70359375 7.41015625 1.6571875 8.5703125 1.609375 9.765625 C1.74174891 13.02273986 1.74174891 13.02273986 3.62890625 15.29296875 C6.42912435 17.30894125 8.86400905 18.14526415 12.1875 19.0625 C13.33347656 19.39507812 14.47945312 19.72765625 15.66015625 20.0703125 C17.68690008 20.63448213 19.71516145 21.19328688 21.74609375 21.7421875 C27.57466585 23.44577672 27.57466585 23.44577672 30.0625 26.6875 C30.371875 27.450625 30.68125 28.21375 31 29 C30.34 29.99 29.68 30.98 29 32 C28.95875 31.236875 28.9175 30.47375 28.875 29.6875 C28.24915889 26.76494552 28.24915889 26.76494552 25.41796875 25.45703125 C20.5920592 23.39981495 15.64656431 22.29222098 10.55859375 21.0625 C5.66585154 19.6016593 2.85035229 18.27552844 0 14 C-1.59030515 9.85637158 -2.21448873 6.8579549 -1.125 2.5 C-0.75375 1.675 -0.3825 0.85 0 0 Z " fill="#177A17" transform="translate(123,103)"/>
<path d="M0 0 C3.87842283 0.22814252 6.55137966 0.74228193 9.9375 2.6875 C13.25738193 8.01943158 12.84938758 13.88440945 12 20 C10.21804288 23.56391424 8.54469868 26.06652799 5 28 C2.75 27.6875 2.75 27.6875 1 27 C1.928125 26.443125 2.85625 25.88625 3.8125 25.3125 C7.13137905 22.90468579 8.52016173 21.7818089 10 18 C10.76249706 12.86585311 10.93349693 9.28022436 7.8125 5 C5.22700798 3.1614279 3.01593878 1.94786647 0 1 C0 0.67 0 0.34 0 0 Z " fill="#197F19" transform="translate(155,117)"/>
<path d="M0 0 C6.31106281 5.73732982 12.03968016 12.3192141 13 21 C12.01 20.67 11.02 20.34 10 20 C9.896875 19.236875 9.79375 18.47375 9.6875 17.6875 C9.23565084 14.97012877 9.23565084 14.97012877 7.4375 13.4375 C6.963125 12.963125 6.48875 12.48875 6 12 C6 10.68 6 9.36 6 8 C4.7934375 7.814375 4.7934375 7.814375 3.5625 7.625 C2.716875 7.41875 1.87125 7.2125 1 7 C0.67 6.34 0.34 5.68 0 5 C0.66 5 1.32 5 2 5 C1.34 3.35 0.68 1.7 0 0 Z " fill="#158514" transform="translate(198,40)"/>
<path d="M0 0 C-1.55116075 4.79947385 -4.27016372 8.24395465 -7.375 12.125 C-8.09816406 13.05505859 -8.09816406 13.05505859 -8.8359375 14.00390625 C-11.31245176 17.13319737 -13.61433854 19.80172692 -17 22 C-16.67 20.35 -16.34 18.7 -16 17 C-15.01 17 -14.02 17 -13 17 C-12.7525 16.46375 -12.505 15.9275 -12.25 15.375 C-10.69347463 12.4176018 -8.96564327 9.70275949 -7 7 C-6.34 7 -5.68 7 -5 7 C-5.061875 6.21625 -5.12375 5.4325 -5.1875 4.625 C-5.125625 3.75875 -5.06375 2.8925 -5 2 C-2 0 -2 0 0 0 Z " fill="#168012" transform="translate(209,170)"/>
<path d="M0 0 C0.33 0 0.66 0 1 0 C1.19292303 5.1690067 0.57036682 9.46021529 -0.8125 14.4375 C-1.08271973 15.41601929 -1.08271973 15.41601929 -1.35839844 16.41430664 C-2.66438588 21.05518503 -4.17915961 25.53894104 -6 30 C-6.66 29.01 -7.32 28.02 -8 27 C-7.125 23.8125 -7.125 23.8125 -6 21 C-5.34 21 -4.68 21 -4 21 C-3.896875 19.948125 -3.79375 18.89625 -3.6875 17.8125 C-2.94805734 11.77734301 -1.43040204 5.90153295 0 0 Z " fill="#148012" transform="translate(223,126)"/>
<path d="M0 0 C3 1 3 1 4 3 C4.125 6.5625 4.125 6.5625 4 10 C2.27665979 11.72334021 0.0331379 11.21271834 -2.3125 11.25 C-3.27800781 11.27578125 -4.24351562 11.3015625 -5.23828125 11.328125 C-8.36753676 10.95633227 -9.69109423 10.08404796 -12 8 C-11.67 6.68 -11.34 5.36 -11 4 C-10.34 5.65 -9.68 7.3 -9 9 C-5.04 9 -1.08 9 3 9 C2.01 6.03 1.02 3.06 0 0 Z " fill="#147F14" transform="translate(162,102)"/>
<path d="M0 0 C7.92 0 15.84 0 24 0 C24 0.66 24 1.32 24 2 C22.7934375 1.96519531 21.586875 1.93039063 20.34375 1.89453125 C18.72918072 1.86637016 17.11459621 1.83907251 15.5 1.8125 C14.31277344 1.77479492 14.31277344 1.77479492 13.1015625 1.73632812 C5.87455178 1.64747144 -0.39467363 3.09533943 -6 8 C-5.67 6.35 -5.34 4.7 -5 3 C-4.360625 2.87625 -3.72125 2.7525 -3.0625 2.625 C-2.0415625 2.315625 -2.0415625 2.315625 -1 2 C-0.67 1.34 -0.34 0.68 0 0 Z " fill="#0F830E" transform="translate(131,95)"/>
<path d="M0 0 C0.99 0 1.98 0 3 0 C6.03503994 6.57591988 7.01742509 12.76830204 6 20 C4.4765625 22.86328125 4.4765625 22.86328125 3 25 C2.34 24.67 1.68 24.34 1 24 C1.32355469 23.29875 1.64710937 22.5975 1.98046875 21.875 C3.09074998 18.74409201 3.29982271 16.31299938 3.3125 13 C3.32925781 11.989375 3.34601563 10.97875 3.36328125 9.9375 C2.95136346 6.60672389 1.8255219 4.77440796 0 2 C0 1.34 0 0.68 0 0 Z " fill="#168317" transform="translate(109,84)"/>
<path d="M0 0 C0 0.66 0 1.32 0 2 C2.31 2 4.62 2 7 2 C7 2.66 7 3.32 7 4 C9.97 4 12.94 4 16 4 C16 4.66 16 5.32 16 6 C7.33459773 5.5946828 -0.65773999 4.38994476 -9 2 C-9 1.67 -9 1.34 -9 1 C-5.94152152 0.45627049 -3.11227195 0 0 0 Z " fill="#078406" transform="translate(89,219)"/>
<path d="M0 0 C0.69921875 1.734375 0.69921875 1.734375 1 4 C-0.29296875 6.140625 -0.29296875 6.140625 -2.1875 8.25 C-2.79980469 8.95640625 -3.41210938 9.6628125 -4.04296875 10.390625 C-6 12 -6 12 -10 12 C-8.52278578 8.54798361 -6.56205999 6.35038064 -3.875 3.75 C-3.15054688 3.04359375 -2.42609375 2.3371875 -1.6796875 1.609375 C-1.12539063 1.07828125 -0.57109375 0.5471875 0 0 Z " fill="#128910" transform="translate(37,28)"/>
<path d="M0 0 C3.68931338 6.32453722 4.25454902 12.87262743 4 20 C3.67 18.68 3.34 17.36 3 16 C2.34 16 1.68 16 1 16 C0.93941406 15.38511719 0.87882813 14.77023438 0.81640625 14.13671875 C0.73261719 13.32847656 0.64882812 12.52023438 0.5625 11.6875 C0.48128906 10.88699219 0.40007812 10.08648437 0.31640625 9.26171875 C0.04734307 6.83912821 0.04734307 6.83912821 -1 4 C-0.5625 1.8125 -0.5625 1.8125 0 0 Z " fill="#148213" transform="translate(220,80)"/>
<path d="M0 0 C3.87036618 1.29012206 4.4417845 2.82387647 6.5625 6.25 C7.46162109 7.68085938 7.46162109 7.68085938 8.37890625 9.140625 C9.84021986 11.71817093 10.98139741 14.22291433 12 17 C6.85104502 12.47516078 3.43278366 6.89607799 0 1 C0 0.67 0 0.34 0 0 Z " fill="#168115" transform="translate(14,167)"/>
<path d="M0 0 C0.33 0 0.66 0 1 0 C1 4.29 1 8.58 1 13 C0.34 13 -0.32 13 -1 13 C-1 14.65 -1 16.3 -1 18 C-1.66 18.33 -2.32 18.66 -3 19 C-2.54240047 12.4491015 -1.7899856 6.3246158 0 0 Z " fill="#178A17" transform="translate(4,80)"/>
<path d="M0 0 C6.54849313 1.16204993 12.74538144 2.73383385 19 5 C15.26141745 6.18803845 12.80485731 5.53122423 9.0390625 4.48046875 C6.33270681 3.84276425 3.76595447 3.86170228 1 4 C0.67 2.68 0.34 1.36 0 0 Z " fill="#168715" transform="translate(135,2)"/>
<path d="M0 0 C1.15242188 0.00902344 2.30484375 0.01804688 3.4921875 0.02734375 C4.36101562 0.03894531 5.22984375 0.05054688 6.125 0.0625 C6.125 0.3925 6.125 0.7225 6.125 1.0625 C0.88954631 3.26690155 -4.26284265 3.71934458 -9.875 3.0625 C-10.865 2.4025 -11.855 1.7425 -12.875 1.0625 C-8.52167264 0.22226812 -4.43057481 -0.04520995 0 0 Z " fill="#28A125" transform="translate(103.875,-0.0625)"/>
<path d="M0 0 C1.01382963 3.6208201 1.49897691 7.27811418 2 11 C1.01 10.34 0.02 9.68 -1 9 C-1 8.34 -1 7.68 -1 7 C-2.32 6.67 -3.64 6.34 -5 6 C-3.86695008 2.60085025 -2.87481525 1.94745549 0 0 Z " fill="#107D0F" transform="translate(109,109)"/>
<path d="M0 0 C3.36016893 1.12005631 4.69064913 2.37211797 7 5 C7 5.66 7 6.32 7 7 C-2.59453303 4.10933941 -2.59453303 4.10933941 -6 1 C-3.03 1.495 -3.03 1.495 0 2 C0 1.34 0 0.68 0 0 Z " fill="#10870F" transform="translate(66,211)"/>
<path d="M0 0 C0.33 0 0.66 0 1 0 C1.125 6.75 1.125 6.75 0 9 C-0.66 9 -1.32 9 -2 9 C-2.33 11.31 -2.66 13.62 -3 16 C-3.66 16 -4.32 16 -5 16 C-3.90301833 10.30860098 -2.45946923 5.25432063 0 0 Z " fill="#198618" transform="translate(10,64)"/>
<path d="M0 0 C2.475 0.495 2.475 0.495 5 1 C5 1.66 5 2.32 5 3 C5.763125 3.061875 6.52625 3.12375 7.3125 3.1875 C10 4 10 4 11.8125 6.5625 C12.204375 7.366875 12.59625 8.17125 13 9 C7.97290493 7.42903279 3.97133531 4.38006951 0 1 C0 0.67 0 0.34 0 0 Z " fill="#168014" transform="translate(42,200)"/>
<path d="M0 0 C3.63 0.33 7.26 0.66 11 1 C11 1.66 11 2.32 11 3 C7.04 3 3.08 3 -1 3 C-0.67 2.01 -0.34 1.02 0 0 Z " fill="#10890C" transform="translate(123,127)"/>
<path d="M0 0 C0.66 0.33 1.32 0.66 2 1 C2.625 3.5625 2.625 3.5625 3 6 C-0.79267192 6.9360342 -3.93674565 6.98276252 -7.8125 6.5625 C-8.78832031 6.46066406 -9.76414062 6.35882813 -10.76953125 6.25390625 C-11.50558594 6.17011719 -12.24164063 6.08632812 -13 6 C-13 5.67 -13 5.34 -13 5 C-8.38 5 -3.76 5 1 5 C0.67 3.35 0.34 1.7 0 0 Z " fill="#178018" transform="translate(114,140)"/>
<path d="M0 0 C1.1055189 0.93590504 2.20935453 1.87379858 3.3125 2.8125 C3.92738281 3.33457031 4.54226562 3.85664062 5.17578125 4.39453125 C8.51952278 7.3373102 8.51952278 7.3373102 10 9 C10 9.66 10 10.32 10 11 C9.01 10.67 8.02 10.34 7 10 C7 9.34 7 8.68 7 8 C5.68 7.34 4.36 6.68 3 6 C3 5.34 3 4.68 3 4 C2.01 3.67 1.02 3.34 0 3 C0 2.01 0 1.02 0 0 Z " fill="#167C17" transform="translate(188,29)"/>
<path d="M0 0 C4.67105792 1.55701931 8.08705685 4.08447373 12 7 C10.02 7.99 10.02 7.99 8 9 C7.608125 8.401875 7.21625 7.80375 6.8125 7.1875 C4.79307705 4.7502654 2.69753718 3.60394103 0 2 C0 1.34 0 0.68 0 0 Z " fill="#178316" transform="translate(170,16)"/>
<path d="M0 0 C1.5625 1.5 1.5625 1.5 3 4 C2.96823234 6.77437543 2.50364148 9.25286467 2 12 C1.34 12 0.68 12 0 12 C-0.19401633 10.18818595 -0.38004375 8.37551468 -0.5625 6.5625 C-0.66691406 5.55316406 -0.77132813 4.54382813 -0.87890625 3.50390625 C-0.91886719 2.67761719 -0.95882813 1.85132812 -1 1 C-0.67 0.67 -0.34 0.34 0 0 Z " fill="#168A13" transform="translate(1,120)"/>
<path d="M0 0 C4.4571874 0.26218749 6.51522698 0.57711289 9.9375 3.5625 C10.618125 4.366875 11.29875 5.17125 12 6 C7.97132081 6 6.24220658 4.29656299 3 2 C2.01 1.34 1.02 0.68 0 0 Z " fill="#107B0F" transform="translate(155,117)"/>
<path d="M0 0 C-0.53625 0.2475 -1.0725 0.495 -1.625 0.75 C-4.56363927 2.29665225 -7.24770663 4.1451936 -10 6 C-10.99 6.495 -10.99 6.495 -12 7 C-11.8125 4.625 -11.8125 4.625 -11 2 C-7.38684234 -0.16789459 -4.14058636 -0.19258541 0 0 Z " fill="#187F15" transform="translate(137,96)"/>
<path d="M0 0 C1.6875 2 1.6875 2 3 4 C-5.57142857 3.14285714 -5.57142857 3.14285714 -9 1 C-5.94152152 0.45627049 -3.11227195 0 0 0 Z " fill="#118416" transform="translate(89,219)"/>
<path d="M0 0 C1.32 1.32 2.64 2.64 4 4 C3.67 4.33 3.34 4.66 3 5 C2.95907063 7.33297433 2.95758277 9.66705225 3 12 C0.60926555 8.17482487 0.44033448 4.40334476 0 0 Z " fill="#138C15" transform="translate(2,133)"/>
<path d="M0 0 C1.2077558 3.62326739 0.54311128 4.64146369 -1 8 C-2.32 7.67 -3.64 7.34 -5 7 C-3.35 4.69 -1.7 2.38 0 0 Z " fill="#128815" transform="translate(22,45)"/>
<path d="M0 0 C1 3 1 3 -0.4375 6.1875 C-1.2109375 7.5796875 -1.2109375 7.5796875 -2 9 C-2.33 9 -2.66 9 -3 9 C-3.1875 5.625 -3.1875 5.625 -3 2 C-2.01 1.34 -1.02 0.68 0 0 Z " fill="#188814" transform="translate(215,156)"/>
<path d="M0 0 C0.66 0 1.32 0 2 0 C1.67 3.3 1.34 6.6 1 10 C0.01 9.01 -0.98 8.02 -2 7 C-1.34 4.69 -0.68 2.38 0 0 Z " fill="#0E790B" transform="translate(123,103)"/>
<path d="M0 0 C2.78388975 1.70625501 3.85384206 2.47626739 4.75 5.6875 C4.8325 6.450625 4.915 7.21375 5 8 C3.0625 7.625 3.0625 7.625 1 7 C0.67 6.34 0.34 5.68 0 5 C0.66 5 1.32 5 2 5 C1.34 3.35 0.68 1.7 0 0 Z " fill="#0E890E" transform="translate(198,40)"/>
<path d="M0 0 C2.89932357 2.39509338 3.50168276 4.31245243 4 8 C2.68 7.34 1.36 6.68 0 6 C0 4.02 0 2.04 0 0 Z " fill="#178A14" transform="translate(212,61)"/>
<path d="M0 0 C0.33 0.99 0.66 1.98 1 3 C-0.96466413 4.06775224 -2.96855359 5.06553465 -5 6 C-5.66 5.67 -6.32 5.34 -7 5 C-4.69 3.35 -2.38 1.7 0 0 Z " fill="#18881D" transform="translate(52,17)"/>
</svg>
